<svg width="24" height="28" viewBox="0 0 24 28" fill="none" xmlns="http://www.w3.org/2000/svg">
<g id="Document">
<path id="Document_2" fill-rule="evenodd" clip-rule="evenodd" d="M6.85051 0.666667H17.1379C21.4224 0.666667 23.9884 3.26858 24 7.61295V20.387C24 24.7314 21.4456 27.3333 17.1495 27.3333H13.3411C12.8527 27.2787 12.483 26.8603 12.483 26.362C12.483 25.8638 12.8527 25.4453 13.3411 25.3907H17.1379C20.4122 25.3907 22.061 23.7071 22.061 20.387V7.61295C22.061 4.29286 20.4122 2.60927 17.1379 2.60927H6.85051C3.5762 2.60927 1.91582 4.29286 1.91582 7.61295V20.387C1.91582 23.7071 3.5762 25.3907 6.85051 25.3907C7.33892 25.4453 7.7086 25.8638 7.7086 26.362C7.7086 26.8603 7.33892 27.2787 6.85051 27.3333C2.56604 27.3333 0 24.7314 0 20.387V7.61295C0 3.25681 2.56604 0.666667 6.85051 0.666667ZM7.18723 9.33186H10.8447C11.3331 9.27726 11.7028 8.8588 11.7028 8.36056C11.7028 7.86232 11.3331 7.44386 10.8447 7.38926H7.18723C6.69882 7.44386 6.32913 7.86232 6.32913 8.36056C6.32913 8.8588 6.69882 9.27726 7.18723 9.33186ZM16.7895 14.9713H7.18723H7.17562C6.68721 14.9167 6.31752 14.4982 6.31752 14C6.31752 13.5018 6.68721 13.0833 7.17562 13.0287H16.7895C17.157 12.9876 17.5152 13.1632 17.7116 13.4808C17.908 13.7983 17.908 14.2017 17.7116 14.5192C17.5152 14.8368 17.157 15.0124 16.7895 14.9713ZM16.7896 20.6107H7.18723H7.17562C6.64978 20.6107 6.22351 20.1785 6.22351 19.6453C6.22351 19.1121 6.64978 18.6799 7.17562 18.6799H16.7896C17.3154 18.6799 17.7417 19.1121 17.7417 19.6453C17.7417 20.1785 17.3154 20.6107 16.7896 20.6107Z" fill="#407BFF"/>
</g>
</svg>
