<svg width="26" height="28" viewBox="0 0 26 28" fill="none" xmlns="http://www.w3.org/2000/svg">
<g id="Home">
<path id="Home_2" fill-rule="evenodd" clip-rule="evenodd" d="M23.8695 8.12164C24.8188 8.88517 25.3761 10.0339 25.3883 11.2521L25.3767 21.884C25.3767 24.7718 23.0356 27.1129 20.1477 27.1129H17.8289C16.4311 27.113 15.2962 25.9832 15.2898 24.5854V19.7854C15.2898 19.414 14.9887 19.1129 14.6173 19.1129H11.139C10.9587 19.1129 10.7858 19.1854 10.6594 19.314C10.5329 19.4426 10.4635 19.6167 10.4666 19.797V21.6289C10.4666 22.2052 9.9994 22.6724 9.42311 22.6724C8.84681 22.6724 8.37963 22.2052 8.37963 21.6289V19.797C8.37963 19.0621 8.67157 18.3573 9.19124 17.8376C9.71091 17.3179 10.4157 17.026 11.1506 17.026H14.6289C16.1548 17.0324 17.3883 18.2711 17.3883 19.797V24.5854C17.3883 24.8287 17.5856 25.026 17.8289 25.026H20.2057C21.9346 25.026 23.3362 23.6244 23.3362 21.8956V11.2753C23.3277 10.6869 23.0552 10.1335 22.5941 9.76801L14.5825 3.37961C13.5723 2.54788 12.1145 2.54788 11.1043 3.37961L8.53035 5.30425C8.05331 5.64682 7.38887 5.53781 7.0463 5.06077C6.70372 4.58372 6.81273 3.91929 7.28977 3.57671L9.82891 1.73323C11.5894 0.318089 14.0974 0.318089 15.8579 1.73323L23.8695 8.12164ZM5.56224 25.0144H10.8956V25.0376C11.4719 25.0376 11.939 25.5048 11.939 26.0811C11.939 26.6574 11.4719 27.1245 10.8956 27.1245H5.56224C2.67699 27.1182 0.339628 24.7808 0.333252 21.8956V11.2753C0.351699 10.048 0.927753 8.89592 1.89847 8.14483L2.86079 7.42599C3.31395 7.21236 3.85497 7.35093 4.14964 7.7561C4.4443 8.16126 4.40944 8.71867 4.06659 9.08396L3.12745 9.77961C2.68247 10.1493 2.4236 10.6967 2.42021 11.2753V21.884C2.4329 23.6121 3.83408 25.0081 5.56224 25.0144Z" fill="#407BFF"/>
</g>
</svg>
