<svg width="14" height="18" viewBox="0 0 14 18" fill="none" xmlns="http://www.w3.org/2000/svg">
<g id="Profile">
<path id="Profile_2" fill-rule="evenodd" clip-rule="evenodd" d="M3.71522 5.12822C3.71522 3.32827 5.1886 1.86414 6.99992 1.86414C8.81124 1.86414 10.2846 3.32827 10.2846 5.12822C10.2846 6.92734 8.81124 8.39148 6.99992 8.39148C5.1886 8.39148 3.71522 6.92734 3.71522 5.12822ZM2.51019 5.12822C2.51019 7.58733 4.52445 9.58895 6.99992 9.58895C9.47539 9.58895 11.4888 7.58733 11.4888 5.12822C11.4888 2.66828 9.47539 0.666668 6.99992 0.666668C4.52445 0.666668 2.51019 2.66828 2.51019 5.12822ZM6.14793 17.3208C6.42717 17.3292 6.71145 17.3333 6.99992 17.3333C9.86197 17.3333 13.6666 17.0158 13.6666 14.2751C13.6666 11.1993 8.64856 11.1993 6.99992 11.1993C4.13786 11.1993 0.333252 11.5168 0.333252 14.2584C0.333252 15.0792 0.717319 16.1867 2.54709 16.8025C2.86323 16.9108 3.20369 16.74 3.31103 16.4275C3.41753 16.115 3.24898 15.7759 2.93367 15.67C1.68168 15.2484 1.53744 14.6626 1.53744 14.2584C1.53744 13.0226 3.3756 12.396 6.99992 12.396C10.6242 12.396 12.4624 13.0284 12.4624 14.2751C12.4624 15.51 10.6242 16.1359 6.99992 16.1359C6.72319 16.1359 6.45065 16.1325 6.18231 16.125C5.8603 16.1275 5.5735 16.3759 5.56428 16.7059C5.55422 17.0367 5.81585 17.3125 6.14793 17.3208Z" fill="#407BFF"/>
</g>
</svg>
